<?xml version="1.0" encoding="utf-8"?>
<!-- Generator: Adobe Illustrator 25.4.0, SVG Export Plug-In . SVG Version: 6.00 Build 0)  -->
<svg version="1.1" id="Capa_1" xmlns="http://www.w3.org/2000/svg" xmlns:xlink="http://www.w3.org/1999/xlink" x="0px" y="0px"
	 viewBox="0 0 186.72 216" style="enable-background:new 0 0 186.72 216;" xml:space="preserve">
<style type="text/css">
	.st0{opacity:0.9;}
	.st1{fill:#41423F;}
	.st2{fill:#6D6F6E;}
</style>
<g class="st0">
	<g>
		<g>
			<g>
				<path class="st1" d="M13.73,204.58c-4.11,0-7.43-1.21-9.95-3.62C1.26,198.54,0,195.28,0,191.18c0-4.47,1.36-8.09,4.09-10.87
					c2.73-2.78,6.29-4.17,10.69-4.17c4.01,0,7.24,1.23,9.7,3.68c2.46,2.45,3.69,5.76,3.69,9.92c0,4.36-1.35,7.93-4.03,10.69
					C21.44,203.2,17.97,204.58,13.73,204.58z M14.2,200.29c2.15,0,3.75-0.47,4.81-1.4c0.49-0.7,0.95-1.78,1.38-3.23
					c0.43-1.45,0.64-3.1,0.64-4.95c0-3.43-0.54-6-1.63-7.71c-1.09-1.71-2.91-2.57-5.47-2.57c-1.97,0-3.56,0.47-4.77,1.4
					c-1.35,1.97-2.02,4.91-2.02,8.81c0,3.06,0.59,5.44,1.78,7.13C10.11,199.45,11.87,200.29,14.2,200.29z"/>
				<path class="st1" d="M41.13,201.53l-0.54,2.29H29.14l-0.5-2.29l2.99-1.17c2.07-5.01,4.55-11.59,7.45-19.77l1.09-3.89
					c3.26-0.26,6.13-0.38,8.61-0.38c0.18,0.7,0.65,2.13,1.4,4.29c2.66,7.58,5.09,14.2,7.29,19.83l3.03,1.08l-0.5,2.29H46.79
					l-0.5-2.29l3.69-1.13c-0.47-1.38-1-2.95-1.59-4.77l-9.7,0.24c-0.05,0.18-0.49,1.66-1.32,4.52L41.13,201.53z M39.81,192.07
					l7.37,0.16c-1.37-4.03-2.68-7.77-3.92-11.22C42.25,184,41.1,187.68,39.81,192.07z"/>
				<path class="st1" d="M82.64,204.15c-1.37-2.55-3.7-6.14-6.98-10.79c-1.42,2.47-2.69,4.71-3.8,6.74
					c1.63,0.73,2.82,1.15,3.57,1.43l-0.5,2.29H63.09l-0.5-2.29l2.83-1.28c2.02-2.31,4.66-5.69,7.91-10.19
					c-3.49-4.8-5.92-7.96-7.29-9.5c-1.35-0.7-2.43-1.19-3.26-1.48l0.5-2.37c2.9,0,6-0.05,9.31-0.15c1.34,2.52,3.56,6,6.63,10.44
					l3.57-6.39c-1.63-0.7-2.82-1.08-3.57-1.39l0.5-2.25h11.83l0.5,2.25l-2.83,1.26c-1.86,2.13-4.42,5.41-7.68,9.9
					c3.34,4.62,5.86,7.87,7.57,9.76c0.98,0.49,2.07,0.98,3.26,1.47l-0.5,2.37C88.98,204,85.9,204.05,82.64,204.15z"/>
				<path class="st1" d="M107.11,201.53l-0.54,2.29H95.12l-0.5-2.29l2.99-1.17c2.07-5.01,4.55-11.59,7.45-19.77l1.09-3.89
					c3.26-0.26,6.13-0.38,8.61-0.38c0.18,0.7,0.65,2.13,1.4,4.29c2.66,7.58,5.09,14.2,7.29,19.83l3.03,1.08l-0.5,2.29h-13.19
					l-0.5-2.29l3.69-1.13c-0.47-1.38-1-2.95-1.59-4.77l-9.7,0.24c-0.05,0.18-0.49,1.66-1.32,4.52L107.11,201.53z M105.79,192.07
					l7.37,0.16c-1.37-4.03-2.68-7.77-3.92-11.22C108.23,184,107.08,187.68,105.79,192.07z"/>
				<path class="st1" d="M141.72,200.14c1.76,0,3.04-0.22,3.84-0.66c0.39-1.14,0.88-2.78,1.47-4.91c1.42-0.05,2.95,0.01,4.58,0.19
					c0.1,1.48,0.16,3.43,0.16,5.84l-0.58,1.21c-2.82,1.84-6.26,2.77-10.32,2.77c-4.37,0-7.82-1.23-10.34-3.68
					c-2.52-2.45-3.78-5.81-3.78-10.07c0-4.34,1.42-7.87,4.27-10.6c2.84-2.73,6.35-4.09,10.51-4.09c3.41,0,6.75,0.81,10.01,2.42
					l0.66,1.17c-0.39,2.1-0.89,4.45-1.51,7.05c-1.55,0.05-2.97-0.01-4.27-0.19c-0.41-2.21-0.84-4.01-1.28-5.42
					c-0.91-0.55-2.21-0.82-3.92-0.82c-1.94,0-3.41,0.31-4.42,0.93c-1.86,2.26-2.79,5.29-2.79,9.08c0,3.04,0.67,5.43,2,7.17
					C137.33,199.27,139.24,200.14,141.72,200.14z"/>
				<path class="st1" d="M167.36,201.53l-0.54,2.29h-11.44l-0.5-2.29l2.99-1.17c2.07-5.01,4.55-11.59,7.45-19.77l1.09-3.89
					c3.26-0.26,6.13-0.38,8.61-0.38c0.18,0.7,0.65,2.13,1.4,4.29c2.66,7.58,5.09,14.2,7.29,19.83l3.03,1.08l-0.5,2.29h-13.19
					l-0.5-2.29l3.69-1.13c-0.47-1.38-1-2.95-1.59-4.77l-9.7,0.24c-0.05,0.18-0.49,1.66-1.32,4.52L167.36,201.53z M166.04,192.07
					l7.37,0.16c-1.37-4.03-2.68-7.77-3.92-11.22C168.49,184,167.34,187.68,166.04,192.07z"/>
			</g>
			<g>
				<path class="st2" d="M18.42,216c-0.47,0-0.9-0.07-1.29-0.22c-0.4-0.15-0.74-0.36-1.03-0.64c-0.29-0.28-0.51-0.6-0.68-0.97
					c-0.16-0.37-0.24-0.79-0.24-1.24c0-0.45,0.08-0.86,0.24-1.24c0.16-0.37,0.39-0.7,0.68-0.97c0.29-0.28,0.64-0.49,1.04-0.64
					s0.84-0.22,1.31-0.22c0.55,0,1.05,0.09,1.49,0.28c0.44,0.19,0.8,0.45,1.08,0.8l-1.06,0.96c-0.2-0.22-0.42-0.38-0.65-0.49
					c-0.23-0.11-0.49-0.16-0.78-0.16c-0.25,0-0.48,0.04-0.69,0.12c-0.21,0.08-0.38,0.19-0.53,0.34c-0.15,0.15-0.26,0.33-0.34,0.53
					c-0.08,0.21-0.12,0.44-0.12,0.7c0,0.25,0.04,0.48,0.12,0.68c0.08,0.21,0.19,0.39,0.34,0.54c0.15,0.15,0.32,0.26,0.53,0.35
					c0.2,0.08,0.43,0.12,0.68,0.12c0.25,0,0.49-0.04,0.72-0.12c0.24-0.08,0.47-0.22,0.71-0.42l0.93,1.17
					c-0.34,0.24-0.73,0.43-1.17,0.56C19.28,215.93,18.84,216,18.42,216z M19.3,215.03v-2.47h1.34v2.69L19.3,215.03z"/>
				<path class="st2" d="M27.63,216c-0.47,0-0.9-0.08-1.3-0.23c-0.4-0.15-0.74-0.37-1.04-0.65c-0.29-0.28-0.52-0.6-0.68-0.97
					c-0.16-0.37-0.24-0.78-0.24-1.22c0-0.44,0.08-0.85,0.24-1.22s0.39-0.7,0.68-0.97c0.29-0.28,0.64-0.49,1.04-0.65
					c0.4-0.15,0.83-0.23,1.3-0.23c0.48,0,0.91,0.08,1.31,0.23c0.39,0.15,0.74,0.37,1.03,0.65c0.29,0.28,0.52,0.6,0.68,0.97
					c0.17,0.37,0.25,0.78,0.25,1.22c0,0.44-0.08,0.85-0.25,1.23c-0.17,0.37-0.39,0.7-0.68,0.97c-0.29,0.28-0.63,0.49-1.03,0.64
					C28.55,215.92,28.11,216,27.63,216z M27.63,214.61c0.22,0,0.43-0.04,0.63-0.12s0.36-0.19,0.5-0.34
					c0.14-0.15,0.25-0.33,0.34-0.54c0.08-0.21,0.12-0.44,0.12-0.69c0-0.26-0.04-0.49-0.12-0.7c-0.08-0.21-0.19-0.38-0.34-0.53
					c-0.14-0.15-0.31-0.26-0.5-0.34c-0.19-0.08-0.4-0.12-0.63-0.12c-0.22,0-0.43,0.04-0.63,0.12c-0.19,0.08-0.36,0.19-0.5,0.34
					c-0.14,0.15-0.25,0.33-0.34,0.53c-0.08,0.21-0.12,0.44-0.12,0.7c0,0.25,0.04,0.48,0.12,0.69c0.08,0.21,0.19,0.39,0.34,0.54
					c0.14,0.15,0.31,0.26,0.5,0.34C27.2,214.57,27.41,214.61,27.63,214.61z"/>
				<path class="st2" d="M34.67,215.91v-6.04h2.84c0.77,0,1.35,0.19,1.73,0.48c0.38,0.28,0.57,0.68,0.57,1.14
					c0,0.3-0.08,0.58-0.24,0.81c-0.16,0.23-0.38,0.41-0.67,0.55c-0.29,0.13-0.63,0.2-1.03,0.2l0.17-0.4c0.41,0,0.78,0.06,1.08,0.19
					c0.31,0.13,0.55,0.31,0.72,0.55c0.17,0.24,0.26,0.53,0.26,0.87c0,0.51-0.21,0.93-0.62,1.21c-0.41,0.28-1.01,0.44-1.8,0.44H34.67
					z M36.01,214.57h1.53c0.29,0,0.5,0,0.65-0.09c0.15-0.1,0.22-0.22,0.22-0.43c0-0.2-0.07-0.46-0.22-0.56
					c-0.15-0.1-0.37-0.26-0.65-0.26h-1.53v-0.67h1.28c0.28,0,0.49-0.16,0.63-0.26s0.21-0.3,0.21-0.49c0-0.19-0.07-0.35-0.21-0.44
					c-0.14-0.09-0.35-0.15-0.63-0.15h-1.28V214.57z"/>
				<path class="st2" d="M43.36,215.91v-6.04h2.01v6.04H43.36z"/>
				<path class="st2" d="M50.71,214.57h3.34v1.34h-4.68v-6.04h4.68v1.34h-3.34V214.57z M50.71,212.55h2.67v0.67h-2.67V212.55z"/>
				<path class="st2" d="M57.4,215.91v-6.04h2.91c0.54,0,1,0.14,1.39,0.31c0.39,0.17,0.69,0.45,0.9,0.78
					c0.21,0.33,0.32,0.73,0.32,1.18c0,0.44-0.11,0.83-0.32,1.16s-0.51,0.7-0.9,0.87c-0.39,0.17-0.85,0.39-1.39,0.39h-1.76l0.86-0.96
					v2.3H57.4z M59.4,213.79l-0.86-0.56h1.66c0.35,0,0.61-0.18,0.78-0.33c0.17-0.15,0.26-0.41,0.26-0.68c0-0.28-0.09-0.55-0.26-0.71
					s-0.43-0.29-0.78-0.29h-1.66l0.86-0.69V213.79z M61.26,215.91l-1.46-2.01h1.77l1.47,2.01H61.26z"/>
				<path class="st2" d="M66.75,215.91v-6.04h1.17l3.24,4.03h-0.41v-4.03h1.34v6.04h-1.32l-3.24-4.03h0.55v4.03H66.75z"/>
				<path class="st2" d="M79.02,216c-0.47,0-0.9-0.08-1.3-0.23c-0.4-0.15-0.74-0.37-1.04-0.65c-0.29-0.28-0.52-0.6-0.68-0.97
					c-0.16-0.37-0.24-0.78-0.24-1.22c0-0.44,0.08-0.85,0.24-1.22c0.16-0.37,0.39-0.7,0.68-0.97c0.29-0.28,0.64-0.49,1.04-0.65
					c0.4-0.15,0.83-0.23,1.3-0.23c0.48,0,0.91,0.08,1.31,0.23c0.39,0.15,0.74,0.37,1.03,0.65c0.29,0.28,0.52,0.6,0.68,0.97
					c0.17,0.37,0.25,0.78,0.25,1.22c0,0.44-0.08,0.85-0.25,1.23c-0.17,0.37-0.39,0.7-0.68,0.97c-0.29,0.28-0.63,0.49-1.03,0.64
					C79.93,215.92,79.49,216,79.02,216z M79.02,214.61c0.22,0,0.43-0.04,0.63-0.12s0.36-0.19,0.5-0.34
					c0.14-0.15,0.25-0.33,0.34-0.54c0.08-0.21,0.12-0.44,0.12-0.69c0-0.26-0.04-0.49-0.12-0.7c-0.08-0.21-0.19-0.38-0.34-0.53
					c-0.14-0.15-0.31-0.26-0.5-0.34c-0.19-0.08-0.4-0.12-0.63-0.12s-0.43,0.04-0.63,0.12c-0.19,0.08-0.36,0.19-0.5,0.34
					c-0.14,0.15-0.25,0.33-0.34,0.53c-0.08,0.21-0.12,0.44-0.12,0.7c0,0.25,0.04,0.48,0.12,0.69c0.08,0.21,0.19,0.39,0.34,0.54
					c0.14,0.15,0.31,0.26,0.5,0.34C78.58,214.57,78.79,214.61,79.02,214.61z"/>
				<path class="st2" d="M90.81,215.91v-6.04h3.01c0.65,0,1.22,0.17,1.71,0.42c0.49,0.24,0.88,0.61,1.16,1.05
					c0.28,0.44,0.42,0.97,0.42,1.58c0,0.6-0.14,1.13-0.42,1.57s-0.66,0.8-1.16,1.04c-0.49,0.24-1.06,0.38-1.71,0.38H90.81z
					 M92.82,214.57h0.94c0.34,0,0.63-0.07,0.88-0.2c0.25-0.13,0.44-0.32,0.58-0.56c0.14-0.24,0.21-0.54,0.21-0.88
					c0-0.34-0.07-0.64-0.21-0.88c-0.14-0.24-0.33-0.47-0.58-0.6c-0.25-0.13-0.54-0.24-0.88-0.24h-0.94V214.57z"/>
				<path class="st2" d="M102.18,214.57h3.34v1.34h-4.68v-6.04h4.68v1.34h-3.34V214.57z M102.18,212.55h2.67v0.67h-2.67V212.55z"/>
				<path class="st2" d="M108.86,215.91v-6.04h2.01v4.7h2.67v1.34H108.86z"/>
				<path class="st2" d="M123.57,214.57h3.34v1.34h-4.68v-6.04h4.68v1.34h-3.34V214.57z M123.57,212.55h2.67v0.67h-2.67V212.55z"/>
				<path class="st2" d="M132.53,216c-0.48,0-0.95-0.06-1.39-0.18s-0.81-0.28-1.09-0.47l0.55-1.23c0.26,0.17,0.57,0.31,0.91,0.42
					c0.34,0.11,0.69,0.16,1.03,0.16c0.23,0,0.41-0.02,0.55-0.06c0.14-0.04,0.24-0.1,0.31-0.17c0.06-0.07,0.1-0.15,0.1-0.25
					c0-0.13-0.06-0.24-0.18-0.32c-0.12-0.08-0.28-0.14-0.48-0.19c-0.2-0.05-0.41-0.1-0.65-0.15c-0.24-0.05-0.48-0.12-0.71-0.19
					c-0.24-0.08-0.46-0.18-0.65-0.31c-0.2-0.13-0.36-0.29-0.48-0.5c-0.12-0.21-0.18-0.47-0.18-0.78c0-0.35,0.1-0.68,0.29-0.96
					c0.19-0.29,0.48-0.52,0.87-0.69c0.39-0.17,0.87-0.26,1.44-0.26c0.39,0,0.77,0.04,1.14,0.13c0.37,0.09,0.7,0.22,1,0.38
					l-0.51,1.24c-0.28-0.15-0.56-0.27-0.83-0.34c-0.27-0.08-0.54-0.11-0.8-0.11c-0.23,0-0.41,0.02-0.55,0.07
					c-0.14,0.05-0.24,0.11-0.3,0.19c-0.06,0.08-0.09,0.17-0.09,0.27c0,0.13,0.06,0.23,0.18,0.31c0.12,0.08,0.28,0.14,0.48,0.19
					c0.2,0.05,0.42,0.1,0.66,0.15c0.24,0.05,0.48,0.11,0.71,0.19c0.24,0.08,0.45,0.18,0.65,0.3c0.2,0.13,0.35,0.29,0.47,0.5
					c0.12,0.21,0.18,0.46,0.18,0.77c0,0.34-0.1,0.66-0.29,0.95c-0.19,0.29-0.48,0.52-0.87,0.7C133.59,215.91,133.11,216,132.53,216z
					"/>
				<path class="st2" d="M139.61,215.91v-4.7h-1.34v-1.34h4.68v1.34h-1.34v4.7H139.61z"/>
				<path class="st2" d="M145.59,215.91l2.6-6.04h1.64l2.6,6.04h-1.73l-2.03-5.37h0.66l-2.03,5.37H145.59z M147.01,214.57l0.43-1.34
					h2.87l0.43,1.34H147.01z"/>
				<path class="st2" d="M155.65,215.91v-6.04h2.75c0.65,0,1.22,0.17,1.71,0.42c0.49,0.24,0.88,0.61,1.16,1.05
					c0.28,0.44,0.42,0.97,0.42,1.58c0,0.6-0.14,1.13-0.42,1.57s-0.66,0.8-1.16,1.04c-0.49,0.24-1.06,0.38-1.71,0.38H155.65z
					 M156.99,214.57h1.35c0.34,0,0.63-0.07,0.88-0.2c0.25-0.13,0.44-0.32,0.58-0.56c0.14-0.24,0.21-0.54,0.21-0.88
					c0-0.34-0.07-0.64-0.21-0.88c-0.14-0.24-0.33-0.47-0.58-0.6c-0.25-0.13-0.54-0.24-0.88-0.24h-1.35V214.57z"/>
				<path class="st2" d="M168.25,216c-0.47,0-0.9-0.08-1.3-0.23c-0.4-0.15-0.74-0.37-1.04-0.65c-0.29-0.28-0.52-0.6-0.68-0.97
					c-0.16-0.37-0.24-0.78-0.24-1.22c0-0.44,0.08-0.85,0.24-1.22s0.39-0.7,0.68-0.97c0.29-0.28,0.64-0.49,1.04-0.65
					c0.4-0.15,0.83-0.23,1.3-0.23c0.48,0,0.91,0.08,1.31,0.23c0.39,0.15,0.74,0.37,1.03,0.65c0.29,0.28,0.52,0.6,0.68,0.97
					c0.17,0.37,0.25,0.78,0.25,1.22c0,0.44-0.08,0.85-0.25,1.23c-0.17,0.37-0.39,0.7-0.68,0.97c-0.29,0.28-0.63,0.49-1.03,0.64
					C169.16,215.92,168.72,216,168.25,216z M168.25,214.61c0.22,0,0.43-0.04,0.63-0.12c0.19-0.08,0.36-0.19,0.5-0.34
					c0.14-0.15,0.25-0.33,0.34-0.54c0.08-0.21,0.12-0.44,0.12-0.69c0-0.26-0.04-0.49-0.12-0.7c-0.08-0.21-0.19-0.38-0.34-0.53
					c-0.14-0.15-0.31-0.26-0.5-0.34c-0.19-0.08-0.4-0.12-0.63-0.12s-0.43,0.04-0.63,0.12c-0.19,0.08-0.36,0.19-0.5,0.34
					c-0.14,0.15-0.25,0.33-0.34,0.53c-0.08,0.21-0.12,0.44-0.12,0.7c0,0.25,0.04,0.48,0.12,0.69c0.08,0.21,0.19,0.39,0.34,0.54
					c0.14,0.15,0.31,0.26,0.5,0.34C167.82,214.57,168.02,214.61,168.25,214.61z"/>
			</g>
		</g>
	</g>
	<g>
		<path class="st2" d="M62.18,0.04c0,0-15.19,0.22-24.81,5.72c-13.38,7.65-24.07,21.79-23.83,41.49l0.03,8.19h13.23
			c0.38,0,0.68-0.3,0.68-0.68v-3.31c0-0.82-0.01-1.64-0.02-2.45c-0.04-2.52,0.29-11.56,6.22-20.02c0,0,7.26-11.53,21.73-14.47
			c0,0,3.01-0.59,6.79-0.64V0.04z"/>
		<path class="st2" d="M173.2,48.62c0,0-0.22-15.19-5.72-24.8C159.82,10.45,145.68-0.24,125.97,0l-8.19,0.03v13.22
			c0,0.38,0.3,0.68,0.68,0.68h3.31c0.82,0,1.64-0.01,2.45-0.02c2.52-0.04,11.57,0.29,20.03,6.21c0,0,11.54,7.26,14.48,21.72
			c0,0,0.59,3.01,0.64,6.78H173.2z"/>
		<path class="st2" d="M124.59,159.7c0,0,15.19-0.22,24.81-5.72c13.38-7.65,24.07-21.79,23.83-41.49l-0.03-8.19h-13.23
			c-0.38,0-0.68,0.3-0.68,0.68v3.31c0,0.82,0.01,1.64,0.02,2.45c0.04,2.52-0.29,11.56-6.22,20.02c0,0-7.26,11.53-21.73,14.47
			c0,0-3.01,0.59-6.79,0.64V159.7z"/>
		<path class="st2" d="M13.57,111.09c0,0,0.22,15.19,5.72,24.8c7.66,13.37,21.8,24.06,41.51,23.82l8.19-0.03v-13.22
			c0-0.38-0.3-0.68-0.68-0.68h-3.31c-0.82,0-1.64,0.01-2.45,0.02c-2.52,0.03-11.57-0.29-20.03-6.21c0,0-11.54-7.26-14.48-21.72
			c0,0-0.59-3.01-0.64-6.78H13.57z"/>
		<path class="st2" d="M69.23,0.03v25.9c0,2.65-1.16,4.99-3,6.59c-1.08,0.94-2.76,1.54-3.98,1.87c-0.72,0.2-1.45,0.3-2.19,0.38
			c-0.57,0.06-1.1,0.19-1.7,0.36c-2.03,0.54-4,1.58-5.54,2.99c0,0-4.41,3.59-4.69,9.03c-0.26,5.02-4.13,8.28-8.94,8.28h-4.85
			C33.71,41.2,36.94,32.85,46.8,25.54c5.34-3.96,11.05-4.44,13.71-4.6c0.94-0.06,1.66-0.84,1.66-1.77v-5.13v-14L69.23,0.03z"/>
		<path class="st2" d="M173.21,55.67H147.3c-2.65,0-4.99-1.16-6.59-2.99c-0.94-1.08-1.54-2.76-1.87-3.97
			c-0.2-0.72-0.3-1.45-0.38-2.19c-0.06-0.57-0.19-1.1-0.36-1.7c-0.54-2.02-1.58-3.99-3-5.54c0,0-3.59-4.4-9.03-4.69
			c-5.02-0.26-8.28-4.13-8.28-8.94v-4.85c14.24-0.64,22.59,2.59,29.91,12.45c3.96,5.34,4.45,11.05,4.61,13.71
			c0.05,0.94,0.83,1.66,1.77,1.66h5.13h14.01L173.21,55.67z"/>
		<path class="st2" d="M117.54,159.71v-25.9c0-2.65,1.16-4.99,3-6.59c1.08-0.94,2.76-1.54,3.98-1.87c0.72-0.2,1.45-0.3,2.19-0.38
			c0.57-0.06,1.1-0.19,1.7-0.36c2.03-0.54,4-1.58,5.54-2.99c0,0,4.41-3.59,4.69-9.03c0.26-5.02,4.13-8.28,8.94-8.28h4.85
			c0.64,14.23-2.59,22.58-12.45,29.89c-5.34,3.96-11.05,4.44-13.71,4.6c-0.94,0.06-1.66,0.84-1.66,1.77v5.13v14L117.54,159.71z"/>
		<path class="st2" d="M13.56,104.04h25.91c2.65,0,4.99,1.16,6.59,2.99c0.94,1.08,1.54,2.76,1.87,3.97c0.2,0.72,0.3,1.45,0.38,2.19
			c0.06,0.57,0.19,1.1,0.36,1.7c0.54,2.02,1.58,3.99,3,5.54c0,0,3.59,4.4,9.03,4.69c5.02,0.26,8.28,4.13,8.28,8.94v4.85
			c-14.24,0.64-22.59-2.59-29.91-12.45c-3.96-5.34-4.45-11.05-4.61-13.71c-0.05-0.94-0.83-1.66-1.77-1.66h-5.13H13.57L13.56,104.04z
			"/>
		<rect x="55.17" y="55.61" class="st1" width="34.77" height="6.95"/>
		<path class="st1" d="M55.17,48.67h34.77v-6.95h-28.8c-3.3,0-5.97,2.67-5.97,5.97V48.67z"/>
		<rect x="55.17" y="69.52" class="st1" width="34.77" height="6.95"/>
		<rect x="152.37" y="62.38" class="st1" width="6.95" height="13.9"/>
		<polygon class="st1" points="138.46,62.38 138.46,97.13 173.23,97.13 173.23,62.38 166.27,62.38 166.27,83.23 145.41,83.23 
			145.41,62.38 		"/>
		<path class="st1" d="M105.81,55.61l4.08-6.95l0.83-1.41l3.15-5.36c0.06-0.1,0.16-0.16,0.27-0.18H96.81v34.75h17.32
			c-0.11-0.02-0.2-0.08-0.27-0.18l-3.15-5.36l-0.83-1.41l-4.08-6.95l-1.93-3.28c-0.07-0.12-0.07-0.26,0-0.39L105.81,55.61z"/>
		<path class="st1" d="M122.59,62.56l-4.08,6.95l-0.83,1.41l-3.15,5.36c-0.06,0.1-0.16,0.16-0.27,0.18h17.32V47.72
			c0-3.32-2.69-6.01-6.01-6.01h-11.31c0.11,0.02,0.2,0.08,0.27,0.18l3.15,5.36l0.83,1.41l4.08,6.95l1.93,3.28
			c0.07,0.12,0.07,0.27,0,0.39L122.59,62.56z"/>
		<path class="st1" d="M97.34,1.56l1.9,1.72l2.56,0.12c0.71,0.03,1.39,0.19,2.01,0.45c1.41,0.59,2.54,1.72,3.13,3.13
			c0.26,0.62,0.42,1.3,0.45,2.01l0.12,2.56l1.73,1.89c0.14,0.16,0.27,0.32,0.39,0.48c0.68,0.93,1.06,2,1.13,3.09V0.04H93.78
			c1.09,0.08,2.16,0.45,3.08,1.12C97.02,1.28,97.18,1.42,97.34,1.56"/>
		<path class="st1" d="M77.52,13.45l1.72-1.89L79.36,9c0.03-0.71,0.19-1.39,0.46-2.01c0.59-1.41,1.72-2.54,3.13-3.13
			c0.62-0.26,1.3-0.42,2.01-0.45l2.56-0.12l1.9-1.72c0.15-0.14,0.32-0.27,0.48-0.4c0.92-0.68,1.99-1.05,3.08-1.12H76v16.97
			c0.07-1.09,0.45-2.15,1.12-3.08C77.24,13.77,77.38,13.61,77.52,13.45"/>
		<path class="st1" d="M110.76,17.8c-0.07,1.09-0.45,2.16-1.13,3.09c-0.12,0.17-0.25,0.33-0.39,0.48l-1.72,1.89l-0.12,2.56
			c-0.03,0.71-0.19,1.39-0.45,2.01c-0.59,1.41-1.72,2.54-3.13,3.13c-0.62,0.26-1.3,0.42-2.01,0.46l-2.56,0.12l-1.9,1.72
			c-0.16,0.14-0.32,0.27-0.48,0.4c-0.92,0.68-1.99,1.05-3.08,1.12h16.99V17.8z"/>
		<path class="st1" d="M89.9,33.66c-0.16-0.12-0.33-0.25-0.48-0.4l-1.9-1.72l-2.56-0.12c-0.71-0.03-1.39-0.19-2.01-0.46
			c-1.41-0.59-2.54-1.72-3.13-3.13c-0.26-0.62-0.42-1.3-0.46-2.01l-0.12-2.56l-1.72-1.89c-0.14-0.16-0.27-0.31-0.4-0.48
			c-0.68-0.92-1.05-1.99-1.12-3.08v16.97h16.98C91.89,34.71,90.83,34.34,89.9,33.66"/>
		<path class="st1" d="M89.9,17.41c0,1.92,1.56,3.47,3.48,3.47c1.92,0,3.48-1.56,3.48-3.47c0-1.92-1.56-3.47-3.48-3.47
			C91.46,13.94,89.9,15.49,89.9,17.41"/>
		<polygon class="st1" points="31.17,88.59 23.95,79.85 31.17,71.11 24.44,62.53 13.56,62.53 13.56,97.27 24,97.27 		"/>
		<polygon class="st1" points="48.28,97.28 48.28,62.52 31.3,62.52 38.39,71.11 31.17,79.85 38.39,88.6 31.22,97.28 		"/>
		<polygon class="st1" points="103.77,90.29 96.81,90.29 96.81,97.24 110.72,97.24 110.72,83.34 103.77,83.34 		"/>
		<polygon class="st1" points="117.67,83.34 117.67,97.24 131.58,97.24 131.58,90.29 124.63,90.29 124.63,83.34 		"/>
		<rect x="110.72" y="97.24" class="st1" width="6.95" height="6.95"/>
		<polygon class="st1" points="110.72,118.09 110.72,104.18 96.81,104.18 96.81,111.13 103.77,111.13 103.77,118.09 		"/>
		<polygon class="st1" points="124.63,111.14 131.58,111.14 131.58,104.19 117.68,104.19 117.68,118.09 124.63,118.09 		"/>
		<polygon class="st1" points="89.94,102.62 89.94,83.34 55.17,83.34 55.17,94.94 59.04,94.94 59.04,98.76 62.9,98.76 62.9,102.66 
			74.48,102.66 74.48,94.94 70.62,94.94 70.62,98.79 66.76,98.79 66.76,91.08 78.35,91.08 78.35,94.94 82.21,94.94 82.21,98.76 
			86.08,98.76 86.08,102.62 		"/>
		<path class="st1" d="M61.27,118.09h28.67v-11.6H55.17v5.51C55.17,115.36,57.9,118.09,61.27,118.09"/>
		<path class="st1" d="M99.25,144.97c-2.37,0-3.43,0.36-4.77,0.81c-1.55,0.52-3.48,1.16-6.98,1.16c-3.5,0-5.43-0.65-6.98-1.16
			c-1.29-0.43-2.33-0.78-4.52-0.81v3.75c3.35,0.03,5.22,0.66,6.73,1.16c1.34,0.45,2.4,0.81,4.77,0.81s3.43-0.35,4.77-0.81
			c1.55-0.52,3.48-1.16,6.98-1.16c3.51,0,5.43,0.65,6.98,1.16c1.29,0.43,2.33,0.78,4.52,0.8v-3.74c-3.35-0.03-5.22-0.66-6.73-1.16
			C102.68,145.33,101.62,144.97,99.25,144.97"/>
		<path class="st1" d="M99.25,134.28c-2.37,0-3.43,0.35-4.77,0.81c-1.55,0.52-3.48,1.16-6.98,1.16c-3.5,0-5.43-0.65-6.98-1.16
			c-1.29-0.43-2.33-0.78-4.52-0.81v3.75c3.35,0.03,5.22,0.66,6.73,1.16c1.34,0.45,2.4,0.81,4.77,0.81s3.43-0.36,4.77-0.81
			c1.55-0.52,3.48-1.16,6.98-1.16c3.51,0,5.43,0.65,6.98,1.16c1.29,0.43,2.33,0.78,4.52,0.8v-3.74c-3.35-0.03-5.22-0.66-6.73-1.16
			C102.68,134.63,101.62,134.28,99.25,134.28"/>
		<path class="st1" d="M87.49,129.3c2.37,0,3.43-0.35,4.77-0.81c1.55-0.52,3.48-1.16,6.98-1.16c3.5,0,5.43,0.65,6.98,1.16
			c1.29,0.43,2.33,0.78,4.52,0.81v-4.33H75.99v2.36c3.35,0.03,5.22,0.66,6.73,1.16C84.07,128.94,85.12,129.3,87.49,129.3"/>
		<path class="st1" d="M99.25,155.38c-2.37,0-3.43,0.35-4.77,0.81c-1.55,0.52-3.48,1.16-6.98,1.16c-3.5,0-5.43-0.65-6.98-1.16
			c-1.29-0.43-2.33-0.78-4.52-0.81v4.33h34.77v-2.36c-3.35-0.03-5.23-0.66-6.74-1.16C102.68,155.74,101.62,155.38,99.25,155.38"/>
	</g>
</g>
</svg>
